<svg id="Layer_1" data-name="Layer 1" xmlns="http://www.w3.org/2000/svg" viewBox="0 0 857.62 649.6"><defs><style>.cls-1{fill:#eff3f9;}.cls-2{fill:#e3e6ec;}.cls-3{fill:#f76400;}.cls-4{fill:#fff;}.cls-5{fill:#de8e68;}.cls-6{fill:#07a37e;}.cls-7{fill:#e59e85;}.cls-8{fill:#e29307;}.cls-9{fill:#fed892;}.cls-10,.cls-11{fill:none;stroke:#000;stroke-miterlimit:10;}.cls-10{stroke-width:0.95px;}.cls-11{stroke-linecap:round;stroke-width:1.07px;}.cls-12{fill:#00ba94;}.cls-13{fill:#ed4840;}.cls-14{fill:#f4a100;}.cls-15{fill:#e09577;}.cls-16{fill:#fcb330;}.cls-17{fill:#d3876c;}</style></defs><g id="Background"><path class="cls-1" d="M97.7,0H756.8C767.4,0,776,6.4,776,14.2V496.7c0,7.9-8.6,14.2-19.2,14.2H97.7c-10.6,0-19.2-6.4-19.2-14.2V14.2C78.5,6.4,87.1,0,97.7,0Z" transform="translate(0.01)"/><path class="cls-2" d="M97.7,0H756.8C767.4,0,776,9,776,20V54.6H78.5V20C78.5,9,87.1,0,97.7,0Z" transform="translate(0.01)"/><circle class="cls-3" cx="116.91" cy="28" r="8.6"/><circle class="cls-3" cx="144.61" cy="28" r="8.6"/><circle class="cls-3" cx="172.31" cy="28" r="8.6"/><rect class="cls-4" x="114.11" y="94.4" width="290.9" height="157.6"/><rect class="cls-4" x="114.11" y="289.4" width="290.9" height="180.6"/><rect class="cls-4" x="444.61" y="266.4" width="290.9" height="203.6"/><rect class="cls-2" x="444.61" y="94.7" width="290.9" height="14.8"/><rect class="cls-2" x="444.61" y="137.6" width="290.9" height="14.8"/><rect class="cls-2" x="444.61" y="180.5" width="290.9" height="14.8"/><rect class="cls-2" x="444.61" y="222.9" width="290.9" height="14.8"/></g><g id="Foreground"><rect class="cls-5" x="608.51" y="503.2" width="15.3" height="23.2"/><rect class="cls-5" x="788.81" y="601.2" width="15.3" height="23.2"/><path class="cls-6" d="M720.8,288.5c-18.5,0-101.1,82.1-108.3,95.9s-5.1,121.9-5.1,121.9l17.8,3.4L654.1,409c12.6-1.5,65.6-12.9,93-35s-2.6-71.7-2.6-71.7Z" transform="translate(0.01)"/><path class="cls-7" d="M689.9,177c-9.1,8.1-27.3,28.4-28.8,31-4.6-2.2-52.5-27.4-56.1-29s-11.2-14.3-13.8-14.3c-1.5,0-2.9,2.9-2.9,4.9a11,11,0,0,0,2.6,7.1c-3.4-.5-33.4-2.8-33.4-.8,0,5.2,33.6,12.1,36.2,13.5s57.3,52,76.3,52c7.4,0,40.1-22.2,40.1-24.6,3.1-2.1,7.9-5.2,7.9-5.2V194l-11.4-8.3C706.6,185.6,691.7,175.4,689.9,177Z" transform="translate(0.01)"/><path class="cls-8" d="M688.7,171.2c2-16.2,39.3-53,56.4-36.6C760,148.9,733,200,726.1,202,718.3,202.8,688.2,182.2,688.7,171.2Z" transform="translate(0.01)"/><path class="cls-9" d="M802.5,137.5c19-8,45.6,36,42.6,52,0,7-39,22-45,18S783.5,145.5,802.5,137.5Z" transform="translate(0.01)"/><path class="cls-10" d="M770.3,196.6" transform="translate(0.01)"/><path class="cls-11" d="M823.3,87.5" transform="translate(0.01)"/><path class="cls-12" d="M725.9,295.6l62.8,305.5h16.1l5.7-272.5c0-4.7-.4-34.3-.4-38.1C791.9,295.8,753.1,300,725.9,295.6Z" transform="translate(0.01)"/><polygon points="788.81 624.4 804.11 624.4 804.11 641 761.91 641 788.81 624.4"/><polygon points="608.51 526.4 623.81 526.4 623.81 543 581.61 543 608.51 526.4"/><path class="cls-13" d="M526,543H689.4a9.28,9.28,0,0,1,9.3,9.3v87.9a9.28,9.28,0,0,1-9.3,9.3H526a9.28,9.28,0,0,1-9.3-9.3V552.3A9.22,9.22,0,0,1,526,543Z" transform="translate(0.01)"/><path class="cls-13" d="M99.6,649.6,43.4,649a9.09,9.09,0,0,1-8.7-6.7L15,570.1a9.1,9.1,0,0,1,8.8-11.5h94.3a9.07,9.07,0,0,1,8.8,11.3l-18.4,72.8A9,9,0,0,1,99.6,649.6Z" transform="translate(0.01)"/><path class="cls-14" d="M760.9,114c47,0,63.4,39.1,63.4,51.8S809.6,256,810.2,290.5c.1,5.7-84.3,10.8-95.8,2.5C709,289.1,697.4,114,760.9,114Z" transform="translate(0.01)"/><path class="cls-15" d="M845.1,189.5c13.3,20.4,12.5,67.4,12.5,74.5s-49.6,70.9-53.9,70.9c-2.6-2.6-9.8-10.5-9.8-12.9,2.3-4.2,31.8-68.7,37.1-73.3-2.4-2.9-23.5-36-24.4-41.5C825.1,204.1,843,196.3,845.1,189.5Z" transform="translate(0.01)"/><path class="cls-16" d="M845.1,189.5c3-16-21.3-62.4-42.6-52-18.5,9.1-8.4,66-2.4,70C807.3,210.6,842.3,200.1,845.1,189.5Z" transform="translate(0.01)"/><path class="cls-17" d="M748.9,104.4c-1,3.1-1.5,12.7-.4,17,.1.2,20,1.7,22.2-1.8.1-2.9,4.9-28.7,11.4-36.7.6-.9-.7-3.4-.7-3.4l-23.1,9.6-9.4,15.3" transform="translate(0.01)"/><path d="M778.8,81.7a6.53,6.53,0,0,0,5.1,2.9c3.8,0,12.6-3.5,12.6-16,0-9-8.8-13.6-8.8-17.9,0-4.1,1.1-4.2,1.1-7.6,0-1.7-1.7-7.3-7-7.3-3,0-4.1,2.5-7.1,2.5-3.3,0-6.3-6.4-11.3-6.4-3.4,0-6.6,3.2-10.2,3.2-4.1,0-6.9-6.1-12.6-6.1-5.9,0-8,5.3-10.3,5.3-2.9,0-3.4-.8-6.3-.8-1.8,0-7.3,3.2-7.3,9,0,4.1,1.7,10.8,10.2,10.8,5,0,7.8,7.9,12.2,7.9,1.7,0,3.2-1.4,3.6-.7,1.7,3,5.2,11.2,5.2,11.2l15.9,8.9Z" transform="translate(0.01)"/><path class="cls-15" d="M775.3,77.6c0,1.4-.5,1.7-2.6,1.7a2.89,2.89,0,0,1-2.4-2.7c0-3.3,2.4-4,2.4-8.3,0-7.3-19.1-11.1-25.8-14.9h0a17.56,17.56,0,0,0-4.8,9l-4.3,22.1a17.69,17.69,0,0,0,34.7,6.9l.7-3.8h0a5.16,5.16,0,0,0,1.1.2c2.5,0,4.4-2.3,4.4-5.1C778.9,80.1,775.3,75.5,775.3,77.6Z" transform="translate(0.01)"/><path class="cls-6" d="M83.4,523.9C63.1,388,13.4,316.7,7.1,319.4c-8.9,3.9-11.5,80.2,4.4,159,.4,0,.7-.1,1.1-.1a8.28,8.28,0,0,1,8.3,8.3,7.9,7.9,0,0,1-.9,3.8A8.32,8.32,0,0,1,17.9,506a390.56,390.56,0,0,0,17.6,52.9h44A67.69,67.69,0,0,0,83.4,523.9Z" transform="translate(0.01)"/><path class="cls-12" d="M200.9,379.8c-12.3,0-25.5,35.4-40.1,35.4-3.2,0-5.3-3.5-5.3-6.8s10.1-38.4,10.1-55.5a38.29,38.29,0,0,0-.3-4.7,10.75,10.75,0,0,1-5.6,1.6,10.91,10.91,0,0,1-2.2-21.6,28,28,0,0,0-22.8-11.1c-12.9,0-31.1,11.5-31.1,29.3,0,5,1.5,17.7,1.5,29.2,0,65.2-51.1,75-51.1,147.2,0,15.2,8.4,31.9,10.9,36,0,0,42.8.5,46.9.5s37.4-55.6,41.2-61.5c14.5-22.4,62.7-47,62.7-100.5C215.7,389.8,213,379.8,200.9,379.8Z" transform="translate(0.01)"/></g></svg>