<svg xmlns="http://www.w3.org/2000/svg" viewBox="0 0 686.74 763.88"><defs><style>.cls-1{isolation:isolate;}.cls-2,.cls-3{fill:#d6b8e5;}.cls-2,.cls-3,.cls-37,.cls-38,.cls-42,.cls-44,.cls-48,.cls-60{opacity:0.4;}.cls-10,.cls-15,.cls-2,.cls-23,.cls-26,.cls-35,.cls-42,.cls-44,.cls-53,.cls-7{mix-blend-mode:multiply;}.cls-4,.cls-60,.cls-7{fill:#3e186d;}.cls-5{fill:#feb0b0;}.cls-6{fill:#f7428f;}.cls-47,.cls-7{opacity:0.3;}.cls-8{fill:#ff9297;}.cls-9{fill:#7751ff;}.cls-10{fill:#6741e6;opacity:0.35;}.cls-11{fill:#ffc450;}.cls-12{fill:#ffa14f;}.cls-13{fill:#bdabff;}.cls-14,.cls-15{fill:#8f6dff;}.cls-15,.cls-35,.cls-53{opacity:0.5;}.cls-16{fill:#fec9cc;}.cls-17{fill:#452a9b;}.cls-18{fill:#ae7ebf;}.cls-19,.cls-37{fill:#d6bad8;}.cls-20{fill:#ae8dbf;}.cls-21{fill:#fff;}.cls-22{fill:#2e1c66;}.cls-23,.cls-24{fill:#dcdcdc;}.cls-25{fill:#ff8d92;}.cls-26{fill:#d18dd6;}.cls-27{fill:#cc546d;}.cls-28{fill:#c4546d;}.cls-29{fill:#52253b;}.cls-30,.cls-38{fill:#6f3c47;}.cls-31{fill:#9a59b0;}.cls-32{fill:#bd8bc9;}.cls-33,.cls-47{fill:#ae7cbf;}.cls-34,.cls-35{fill:#ce9cd1;}.cls-36,.cls-48{fill:#d6aed8;}.cls-38,.cls-47,.cls-48,.cls-60{mix-blend-mode:screen;}.cls-39{fill:#d6b5a1;}.cls-40{fill:#ecc7b0;}.cls-41{fill:#b56a6d;}.cls-42{fill:#e5c7a9;}.cls-43{fill:#ddb89d;}.cls-44{fill:#ecc2ae;}.cls-45{fill:#e5c4ae;}.cls-46{fill:#ffff9c;}.cls-49{fill:#c290cc;}.cls-50{fill:#efb8e5;}.cls-51{fill:#c4887c;}.cls-52{fill:#dba197;}.cls-53{fill:#e5c2ac;}.cls-54{fill:#878788;}.cls-55{fill:#b4b4b4;}.cls-56{fill:#9e9e9f;}.cls-57{fill:none;}.cls-58{fill:#4f33a9;}.cls-59{fill:#ab90ff;}</style></defs><g class="cls-1"><g id="Layer_1" data-name="Layer 1"><path class="cls-2" d="M256.09,272c24.3,13.15,14.13,59.39,80.85,64.45s139.73-80.79,144.7-136.59-17.18-85.83-47.5-92.49S363.47,119.45,342.44,87s-71.9-37.43-109.18.11c-33.26,33.49.71,50.44-43.85,80-31.68,21-36.21,71.6-1.92,88.93C215.8,270.32,235.44,260.81,256.09,272Z" transform="translate(-163.65 -60.82)"/><path class="cls-3" d="M441.42,627.15c35.08,31,4.31,116.68,111.74,150.11s257.57-82.34,285.59-173.5,2.47-149.52-44.81-172-120-6.33-142.88-68.26-104.38-89.32-178.79-40.7C405.88,366.19,455.46,407.16,372,439.67c-59.34,23.1-68.27,98.76-18.31,140.48C394.92,614.6,411.6,600.77,441.42,627.15Z" transform="translate(-163.65 -60.82)"/><path class="cls-4" d="M724.35,576.57h0c-2.05,10.46-9.86,17.75-17.82,20.89-11.54,4.56-16.75-.89-22.76,5.61s-1.14,26-17.88,27.48-21.95-12.52-31.22-9.11c-.33.13-.66.25-1,.4h0c-3.71,1.68-6.67,4.73-10.26,7.47-4.7,3.61-10.48,6.7-20.44,5.45a24.53,24.53,0,0,1-5.86-1.44c-13-5-15.06-20.17-11-29.77,4.55-10.89-15.77-69.42-15.77-69.42s17.31,4.31,20.89-9.83c3.06-12.1-.39-21,8.36-28.66a30.59,30.59,0,0,1,5.54-3.77,20.85,20.85,0,0,1,12-2.85c6.33.45,11.47,3.65,17.61,3.17,13.44-1,13.21-9.71,13.21-9.71s-2.49-2.9-1.5-9.71c1.18-8.18,7.72-10.69,13.15-10.13a12.94,12.94,0,0,1,2.62.53c5.69,1.79,6.17,7.16,10.4,7.64,2.25.26,6.72-.91,11.47.09,4.15.86,8.52,3.38,11.78,10A21,21,0,0,1,698,487.6s0,0,0,.08a9.65,9.65,0,0,1-.31,4.08l0,.05c-1.18,3.95-4.36,5-.25,7.56,5.21,3.25,12.36,10.08,9.43,21.38a17.15,17.15,0,0,1-5.06,8.67c-1.85,1.8-3.52,3-4,5.26h0a9.09,9.09,0,0,0,.42,4.5c2.76,9.27,18.69,2.44,24.87,21.46.42,1.31.76,2.58,1,3.83h0A29.79,29.79,0,0,1,724.35,576.57Z" transform="translate(-163.65 -60.82)"/><path class="cls-3" d="M253.24,696.62c-22.61,11.74-16.68,53.76,11.74,72.92s68,14.1,81.57-6.18c16.17-24.14-3.19-45.6-29.76-49.31S285.37,679.93,253.24,696.62Z" transform="translate(-163.65 -60.82)"/><path class="cls-5" d="M388,602.74c2.22-1.37,11.47-3.6,14.39-.87.94-1.72,2-4.91,6.09-6.81,69.17-32.27,44.24-52.52,36.42-43.47,1.5-3.47-39.59,31.6-46.11,37.27-11.48,10-28.35,14.26-38.35,17.42C370.6,609.9,377.41,608.2,388,602.74Z" transform="translate(-163.65 -60.82)"/><path class="cls-6" d="M376.83,614.14c5.16-2.7,12-7.42,12-7.42s7.47,5.76,10.77,2.42c2.21-2.22.88-3.85,2.76-7.27-2.92-2.73-11.65-.77-13.87.6-10.56,5.46-17.89,7.43-28.08,3.81-3.53,1.12-6.21,2.1-7.48,3.14C348.07,613.4,371.68,616.84,376.83,614.14Z" transform="translate(-163.65 -60.82)"/><polygon class="cls-6" points="233.09 549.36 222.78 558.77 220.23 558 229.12 545.63 233.09 549.36"/><path class="cls-5" d="M372.09,472.47c2.54.59,4.41,4,4.55,8,1.88-.55,4.9-2.05,9.12-.53,71.8,25.9,68.4-6,56.48-5.14,3.51-1.4-50.36-5.51-59-6.09-15.18-1-30.16-9.88-39.47-14.69C348.46,463.77,360.75,468.89,372.09,472.47Z" transform="translate(-163.65 -60.82)"/><path class="cls-7" d="M684.2,501.06c2.47.23,3.33,3.41,3.25,5.89-.25,7-5.05,6.58-4.63,18.15.5,13.59,10,16.56,10.5,26.49.58,11.4-3.05,19.44-18,28.94-9.63,6.12-5,16.76-15.5,21.25-10.74,4.59-26.25,8.28-33.43,6.11a11.56,11.56,0,0,1-5.17-3.42c-3.06-3.5-3.05-8.93-1.05-13.13s5.64-7.37,9.4-10.11,7.77-5.19,11-8.54c6.93-7.19,9.38-17.42,12.38-26.94,1.7-5.41,3.67-10.78,4.6-16.37.61-3.71.76-7.49,1.66-11.13s2.69-7.26,5.8-9.36c4.34-2.92,3.77,6.89,14.51-5.7" transform="translate(-163.65 -60.82)"/><path class="cls-6" d="M349.89,471.18c5.56,1.72,13.74,3.2,13.74,3.2s1.23,9.34,5.93,9.31c3.12,0,3.33-2.11,7.08-3.21-.14-4-2-7.42-4.55-8-11.34-3.58-23.63-8.7-28.3-18.44-3.29-1.71-5.88-2.9-7.52-3.06C330,450.37,344.33,469.46,349.89,471.18Z" transform="translate(-163.65 -60.82)"/><polygon class="cls-6" points="203.15 421.59 189.21 420.99 187.94 418.65 202.96 416.15 203.15 421.59"/><circle class="cls-3" cx="51.79" cy="737.38" r="26.5"/><path class="cls-7" d="M652.24,482.94a34.7,34.7,0,0,1-2.37,8.77,11.7,11.7,0,0,1-6.28,6.26c-3.35,1.2-7,.26-10.57-.18s-7.67-.09-9.79,2.77c-1.2,1.62-1.51,3.76-2.7,5.38-1.62,2.2-4.52,3-7.23,3.36-2.42.33-5,.49-6.92,2.06-2.37,2-2.66,5.45-3.19,8.49a33.6,33.6,0,0,1-5.94,14c-1.51,2.07-3.37,4.53-2.48,6.94.7,1.9,2.87,2.82,4.88,3.14,4.42.71,8.9-.46,13.3-1.3,9.41-1.79,19.5-2.22,27.51-7.47a43,43,0,0,0,5.3-4.22,31.2,31.2,0,0,0,4.44-4.61,17.67,17.67,0,0,0,3.15-13.43c-.54-3-1.86-6-1-9,.89-3.14,4.08-5.36,4.5-8.59a10.94,10.94,0,0,0-.94-5" transform="translate(-163.65 -60.82)"/><path class="cls-5" d="M669.62,541.66a32.78,32.78,0,0,1-19.88-7.25c-9.5-7.62-10.12-11-10.12-11a14.7,14.7,0,0,0,9.43-2.11,16.22,16.22,0,0,0,4.82-4.64A11.37,11.37,0,0,1,655.3,515c6.75-6.56,21.61-6.45,21.61-6.45s-8.54,10.37-8.92,18.37A49.8,49.8,0,0,0,669.62,541.66Z" transform="translate(-163.65 -60.82)"/><path class="cls-8" d="M668.24,515a9.57,9.57,0,0,1-2.42,5,20.28,20.28,0,0,1-7.86,5.81c-1.77.73-3.84,1.2-5.58.38a5.77,5.77,0,0,1-2.58-2.74,8.67,8.67,0,0,1-.75-2.2,16.22,16.22,0,0,0,4.82-4.64A11.37,11.37,0,0,1,655.3,515a33.05,33.05,0,0,1,7.92-1.78,9.53,9.53,0,0,1,4,.26,1.58,1.58,0,0,1,.95.7A1.57,1.57,0,0,1,668.24,515Z" transform="translate(-163.65 -60.82)"/><path class="cls-5" d="M637.14,519.82l-25.56,32.31a1.62,1.62,0,0,1-1,.59L582.1,558a1.63,1.63,0,0,1-1.31-.32L571.12,550c-10.63-8.44-25.76-20.42-26.08-20.52s-1.85-10.88-2.34-14.59a1.63,1.63,0,0,1,1-1.73l4.31-1.77a1.65,1.65,0,0,1,2,.61,46.55,46.55,0,0,0,5.54,6.73l0,0a51.21,51.21,0,0,0,11.25,8.68,171.44,171.44,0,0,1,18.54,12.06,1.63,1.63,0,0,0,1.78.13l3.42-1.9a1.57,1.57,0,0,0,.26-.19c18.39-15.73,30-23,36.52-24.7a10.19,10.19,0,0,1,2.86-.37l.34,0c4.17.38,6.13,4,6.84,5.75A1.64,1.64,0,0,1,637.14,519.82Z" transform="translate(-163.65 -60.82)"/><path class="cls-9" d="M580,564.7l-17,4.58L485.7,513l-84.33-4.42s-7.12-25.67,2.23-39.41a18.15,18.15,0,0,1,3.44-3.84s82.33,18,93.33,22.33c7.89,3.11,44,36.33,63.75,54.85,7.77,7.27,13,12.28,13,12.28Z" transform="translate(-163.65 -60.82)"/><path class="cls-8" d="M637.7,519.11l-26.5,33.5-31.56,4.89s-8.83-8.34-10.81-10.61c5.17,1.37,15.19,3.57,20.49,2.83,3.78-.52,7.33-.88,10.5-3s3.63-4.88,4.33-8.63c.46-2.44,1.46-5.94,2.92-7.94,3.19-4.34,7.22-5.19,10.88-6.12,6.82-1.73,10.31-4.86,12.25-11.6l.34,0C636,513,637.7,519.11,637.7,519.11Z" transform="translate(-163.65 -60.82)"/><path class="cls-10" d="M580,564.7l-17,4.58L485.7,513l-84.33-4.42s-7.12-25.67,2.23-39.41c-2.93,6.59-2,16.21,2.77,20.85,5.86,5.64,19.89,8.09,28,8.61,11.78.75,25.69-2.78,37.49-3.25s18.26-1.05,28.88,4.1c13,6.28,22,18.25,31.46,29.16,3.68,4.27,7.63,8.54,12.75,10.89,5.85,2.67,12.62,2.57,19.16,3,7.77,7.27,13,12.28,13,12.28Z" transform="translate(-163.65 -60.82)"/><path class="cls-11" d="M669.43,541l-.59.76L631.2,590.45l-29.49,7.34L597,599l-20-32.16s-1.82-7.58.09-12c0,0,11.26,2.12,24.48-6.65l.27-.17a20.94,20.94,0,0,1-.2-2.19c-.14-3.26.22-9.4,4.36-13,5.84-5,8.76-3.34,13.46-5.5s17-10.77,17-10.77S649.33,540,669.43,541Z" transform="translate(-163.65 -60.82)"/><path class="cls-12" d="M668.84,541.74,631.2,590.45l-29.49,7.34c-2.19-2.25-3.32-5.75-1.89-8.5,1.19-2.27,3.71-3.44,6-4.6a24.75,24.75,0,0,0,8.45-6.22c2.2-2.75,3.41-6.51,2.39-9.88-.42-1.39-1.18-2.66-1.62-4.05a4.49,4.49,0,0,1,.46-4.16,4.25,4.25,0,0,1,4.29-1,25.56,25.56,0,0,1,4.27,1.86,16.49,16.49,0,0,0,12.84.27c3.79-1.52,6.85-4.39,9.87-7.14a63,63,0,0,1,12.47-9.42A27.63,27.63,0,0,1,668.84,541.74Z" transform="translate(-163.65 -60.82)"/><path class="cls-12" d="M666.3,541.27c-5.54.24-11.27-.86-15.57-3.88-1.7-1.2-3.17-2.68-5.1-3.56a1,1,0,0,0-.65-.13c-.42.08-.58.55-.61.94-.22,2.75,1.53,5.41,4,7a16.53,16.53,0,0,0,8.77,2.17,51.49,51.49,0,0,0,9.23-1.12l0-.48" transform="translate(-163.65 -60.82)"/><path class="cls-13" d="M489.39,508.53h-.08l-18.66-3c-1.87-.3-4.2-.5-5.63.57a1.31,1.31,0,0,1-1.09.22,1.41,1.41,0,0,1-.94-.73l-1.3-2.54a.45.45,0,0,0-.26-.21.4.4,0,0,0-.29,0c-4.06,2.73-4.73,2.7-11.09,2.36-1.88-.1-4.22-.22-7.3-.32-11.18-.33-30.7-3.28-43.4-5.88a.49.49,0,0,1-.39-.59.51.51,0,0,1,.59-.39c12.66,2.6,32.11,5.53,43.22,5.86,3.11.1,5.45.22,7.33.32,6.32.33,6.7.36,10.49-2.19a1.39,1.39,0,0,1,2,.55l1.3,2.54a.46.46,0,0,0,.28.21.32.32,0,0,0,.26-.05c1.73-1.29,4.32-1.08,6.39-.76l18.66,3a.5.5,0,0,1-.08,1Z" transform="translate(-163.65 -60.82)"/><path class="cls-14" d="M597.67,601.11s-14.88,8.17-28,6.67-35.08-10.21-53.33-32.36-27.75-36.14-27.75-36.14-.87,3.39-3.63.38c0,0-30.12,45.87-49.37,61.87,0,0-13.92-11.81-19.53-27a36.36,36.36,0,0,1-2.22-9.78S434.62,549,451.62,530s25-26.75,36.25-27,78.25,52.47,78.25,52.47l19.81,28.64Z" transform="translate(-163.65 -60.82)"/><path class="cls-15" d="M597.67,601.11s-14.88,8.17-28,6.67-35.08-10.21-53.33-32.36-27.75-36.14-27.75-36.14-.87,3.39-3.63.38c0,0-30.12,45.87-49.37,61.87,0,0-13.92-11.81-19.53-27a21.54,21.54,0,0,0,12.59,6.06c8.71.86,16.87-4.21,23.54-9.88a108.84,108.84,0,0,0,30.47-42.44,8,8,0,0,1,3,4.81l5.21-7.22a12.78,12.78,0,0,0,6.8,12.17c2.09,1,4.43,1.5,6.55,2.48,3.15,1.46,1.54,5.08,11.73,15,8.95,8.73,8.12,13.14,24.75,21.61,9.39,4.79,14.94,5.87,27.44,6.2,5.59.15,10.88-1.23,16.23-2.64Z" transform="translate(-163.65 -60.82)"/><path class="cls-13" d="M428.11,594.41a.51.51,0,0,1-.37-.17.49.49,0,0,1,0-.7c22.74-20.37,37.2-42.46,53.72-69.22a1.1,1.1,0,0,1,1.21-.5,1.08,1.08,0,0,1,.83,1c0,.4.06.8.09,1.21a15.37,15.37,0,0,0,.6,4.1.29.29,0,0,0,.28.21.26.26,0,0,0,.28-.17A19.71,19.71,0,0,1,486,528a1.17,1.17,0,0,1,1.18-.51,1.14,1.14,0,0,1,.91.9l.48,2.34a.42.42,0,0,0,.23.3.45.45,0,0,0,.39,0l1.68-.69a.49.49,0,0,1,.57.14c7.18,8.51,14.6,17.32,22.18,25.78,6.91,7.7,14.49,15.72,23.14,22.2,9.49,7.12,19.18,11.56,28.81,13.19,9,1.54,17,.15,22.64-3.91a.5.5,0,0,1,.59.81c-5.82,4.22-14.13,5.66-23.4,4.09-9.78-1.67-19.62-6.17-29.24-13.38-8.72-6.53-16.34-14.6-23.28-22.34-7.51-8.38-14.86-17.08-22-25.52l-1.34.56a1.49,1.49,0,0,1-1.24-.06,1.45,1.45,0,0,1-.73-1l-.49-2.34a.12.12,0,0,0-.12-.11.13.13,0,0,0-.15.06,17.55,17.55,0,0,0-1.12,2,1.28,1.28,0,0,1-1.24.75,1.31,1.31,0,0,1-1.17-.87,16.28,16.28,0,0,1-.66-4.38c0-.4-.05-.8-.08-1.19a.1.1,0,0,0-.08-.1.11.11,0,0,0-.11.05c-16.58,26.83-31.07,49-53.91,69.44A.5.5,0,0,1,428.11,594.41Z" transform="translate(-163.65 -60.82)"/><path class="cls-5" d="M670.37,568.54c-10.71,14.85-35.75,36.5-48.25,40.75s-28.75-9.5-43-27.75-17.5-25.25-17.5-25.25l1.4-1,6.68-5s13.92,16.52,26.67,24.26a80.81,80.81,0,0,1,20,17s26-25.25,33.75-35.25S662.21,539.6,669.43,541a10.25,10.25,0,0,1,2.26.69h0C678.48,544.61,680.48,554.5,670.37,568.54Z" transform="translate(-163.65 -60.82)"/><path class="cls-16" d="M676.6,546.81a8.89,8.89,0,0,0-4-3.39h0a10.25,10.25,0,0,0-2.26-.69c-7.22-1.38-8.34,7.95-16.09,17.95s-38.35,33.24-38.35,33.24-9.81-6-22.56-13.77c-12.35-7.5-22.21-28.06-23-29.1,2.89,3.32,14.91,16.76,26,23.51a80.81,80.81,0,0,1,20,17s26-25.25,33.75-35.25S662.21,539.6,669.43,541a10.25,10.25,0,0,1,2.26.69h0A9,9,0,0,1,676.6,546.81Z" transform="translate(-163.65 -60.82)"/><polygon class="cls-17" points="395.61 499.85 375.21 442.22 337.63 415.93 356.5 480.85 395.61 499.85"/><path class="cls-18" d="M736.9,390.18a3,3,0,0,1-2.62-4.47l21.18-37.84-15.26-16.4a3,3,0,1,1,4.39-4.08l16.75,18a3,3,0,0,1,.42,3.5l-17.51,31.3,41.9-20.75,20.47-41.64-31.08-39.52a3,3,0,0,1,4.72-3.71l32.25,41a3,3,0,0,1,.33,3.18L791.09,363a3.06,3.06,0,0,1-1.36,1.37l-51.5,25.5A3,3,0,0,1,736.9,390.18Z" transform="translate(-163.65 -60.82)"/><path class="cls-19" d="M640.25,297.68s29.15,4.2,44.9,23.6,11.5,20.9,15,25.65,7.5,5.25,7.5,5.25l52.61-30.9L736.9,287.93l-43-28Z" transform="translate(-163.65 -60.82)"/><polygon class="cls-19" points="616.75 202.77 577.03 224.59 589.24 255.45 608.58 229.11 616.75 202.77"/><path class="cls-18" d="M641.56,297.76l51-32.33s16.34,2.33,33,18,17.67,34.37,26,37.85,11-2.52,11-2.52l22.67-45.66s1.17-7.84-4.83-9.51l-23.17,45.34s-3,4.17-6.33-5.83-12.84-22.34-21.5-29.34-26.34-15.64-35.25-17.46c-5.34-1.08-50.06,29.42-52.39,32.75S639.6,299,641.56,297.76Z" transform="translate(-163.65 -60.82)"/><path class="cls-20" d="M693.23,322a.75.75,0,0,1-.38-1.4l36.29-21.35a.75.75,0,0,1,.76,1.3l-36.29,21.35A.75.75,0,0,1,693.23,322Z" transform="translate(-163.65 -60.82)"/><path class="cls-21" d="M542,664.05l-24,24.64-6.6-8-13-15.69,28.29-19.41c2.64-2.19,8.19.16,12.41,5.25a20.59,20.59,0,0,1,3.29,5.43C543.81,659.63,543.75,662.62,542,664.05Z" transform="translate(-163.65 -60.82)"/><path class="cls-22" d="M519.3,543.5l37.57,19.11a1.57,1.57,0,0,0,2.14-.72l.13-.27a1.57,1.57,0,0,0-.72-2.09l-37.65-19a1.57,1.57,0,0,0-2.17.82l-.05.12A1.58,1.58,0,0,0,519.3,543.5Z" transform="translate(-163.65 -60.82)"/><path class="cls-23" d="M542,664.05l-24,24.64-6.6-8,31-24.42C543.81,659.63,543.75,662.62,542,664.05Z" transform="translate(-163.65 -60.82)"/><path class="cls-24" d="M518.07,688.69c-1.31,1.09-3.31,1.12-5.59.3a21,21,0,0,1-6.81-4.38,30.72,30.72,0,0,1-3-3.13c-5.41-6.53-7.3-13.89-4.22-16.44,2.35-1.95,6.93-.52,11.38,3.2a28.93,28.93,0,0,1,2.75,2.61c.42.45.83.91,1.23,1.4C519.26,678.78,521.15,686.14,518.07,688.69Z" transform="translate(-163.65 -60.82)"/><path class="cls-21" d="M515.4,690.57a9.63,9.63,0,0,1-3.26-.64,21.81,21.81,0,0,1-7.14-4.58,31.51,31.51,0,0,1-3.07-3.23,27.11,27.11,0,0,1-5.49-10.1c-.9-3.5-.4-6.25,1.4-7.75,2.69-2.23,7.66-1,12.66,3.21a29.69,29.69,0,0,1,2.84,2.69c.44.47.86.94,1.28,1.45,4,4.81,6.25,10.21,5.89,14.07a5.36,5.36,0,0,1-1.8,3.77A5,5,0,0,1,515.4,690.57Zm-14.23-25.39a3.14,3.14,0,0,0-2.05.63c-1.16,1-1.43,3-.74,5.71a25.17,25.17,0,0,0,5.09,9.33,30.69,30.69,0,0,0,2.88,3,19.92,19.92,0,0,0,6.47,4.18c2,.73,3.65.68,4.61-.13h0a3.38,3.38,0,0,0,1.09-2.41c.31-3.31-1.83-8.26-5.45-12.62-.39-.48-.78-.92-1.19-1.35a27.27,27.27,0,0,0-2.66-2.53C506.27,666.55,503.29,665.18,501.17,665.18Z" transform="translate(-163.65 -60.82)"/><path class="cls-25" d="M506.65,659.54l10.94-8.11c3.07-2.54,9.43.06,14.2,5.81a23.7,23.7,0,0,1,3.08,4.73c2.11,4.33,2.24,8.44,0,10.31l-9.72,9c1-.79.28-5-2.14-9.44a27.49,27.49,0,0,0-3.14-4.67c-5-6.06-11.5-9-13.19-7.59Z" transform="translate(-163.65 -60.82)"/><path class="cls-26" d="M523,671.81,534.87,662c2.11,4.33,2.24,8.44,0,10.31l-9.72,9C526.11,680.46,525.42,676.3,523,671.81Z" transform="translate(-163.65 -60.82)"/><path class="cls-27" d="M470,652.35c-4,1-9,5.39-12.79,11.77s-5.14,12.74-4.1,16.74l-.88,1.49,3.21,1.9h0c4.11,2.32,11.52-2.76,16.61-11.41s5.9-17.43,2-20v0l-3.21-1.9Z" transform="translate(-163.65 -60.82)"/><ellipse class="cls-25" cx="461.47" cy="666.61" rx="18.26" ry="8.6" transform="translate(-510.72 665.78) rotate(-59.55)"/><path class="cls-27" d="M465.17,652.73c-3.25.86-7.36,4.58-10.49,9.89s-4.34,10.57-3.57,13.84l-.73,1.24,2.55,1.52h0c3.27,1.85,9.32-2.45,13.56-9.65s5-14.44,1.92-16.47v0l-2.56-1.51Z" transform="translate(-163.65 -60.82)"/><ellipse class="cls-25" cx="458.08" cy="664.6" rx="15.2" ry="6.85" transform="translate(-510.67 661.69) rotate(-59.54)"/><path class="cls-28" d="M464.09,655.62c1.55.91,1.1,4.54-1,8.11a14.63,14.63,0,0,1-2.92,3.61l2.05-11.7A2.06,2.06,0,0,1,464.09,655.62Z" transform="translate(-163.65 -60.82)"/><circle class="cls-27" cx="288.1" cy="606.72" r="0.58"/><circle class="cls-27" cx="289.68" cy="603.76" r="0.58"/><circle class="cls-27" cx="287.89" cy="609.88" r="0.58"/><circle class="cls-27" cx="290.17" cy="606.05" r="0.58"/><circle class="cls-27" cx="292.03" cy="602.07" r="0.58"/><circle class="cls-27" cx="291.95" cy="599.67" r="0.58"/><circle class="cls-27" cx="290.5" cy="609.19" r="0.58"/><path class="cls-29" d="M480.85,713.62a6.48,6.48,0,0,0-.39,7.41c2.16,3.11,6.58,3.26,10.22,4.32,7,2.06,15.14,7.94,14.77,19.94-.16,5-2.32,10.24-6.68,12.75a8.65,8.65,0,0,1-1.45.67c-4.27,1.53-9.81.14-12.16-3-1.51-2-1.64-4.82-3.35-6.42a4.35,4.35,0,0,0-1.51-.91c-3.09-1.1-6.38-.57-7,2.81-.4,2.21,1.83,2.36,3.22,6.07,1.66,4.39-2.32,8.91-6.44,11.14a24.18,24.18,0,0,1-5.84,2.28,17.1,17.1,0,0,1-4.45.47,12.53,12.53,0,0,1-9.45-4.41c-1.7-2.14-2.52-4.92-4.37-6.93a9.32,9.32,0,0,0-4.27-2.59,15.69,15.69,0,0,0-9.74.64c-4.68,1.78-8.64,5-13.08,7.35a33.79,33.79,0,0,1-11.73,3.58,29.83,29.83,0,0,1-10.53-3.26c-9.16-4.89-15.36-15.24-14.53-25.59s6.05-20.67,21.25-24.42a52.42,52.42,0,0,1,6.05-1.16c4.25.64,8.07,2.4,13,5.08,11.58,6.25,14.15,15.93,28.81,18.66a17.3,17.3,0,0,0,7.84,0l.43-.13c2.65-.88,5-3.14,5.22-5.92.39-5-5.52-8-7.66-12.55-2.5-5.33,1.21-12.16,6.73-14.2,3.61-1.33,7.5-1,11.39-.84,1.29,0,2.59.09,3.87,0,.6,0,1.19-.07,1.78-.13,2,.08,3.94.21,5.89.13a28.72,28.72,0,0,0,20.64-10.15q.39-.48.75-1c.25.71.51,1.41.71,2.09.51,1.7.66,3.27-.53,4.52-1.89,2-5.87,1-7.18,3.43a8.59,8.59,0,0,0-.57,2.83,6.42,6.42,0,0,1-3.35,4.51,5.85,5.85,0,0,1-1.63.57,10.42,10.42,0,0,1-3.77-.15,30,30,0,0,0-4-.62A8.41,8.41,0,0,0,480.85,713.62Z" transform="translate(-163.65 -60.82)"/><path class="cls-30" d="M516.52,695.49c.51,1.7.66,3.27-.53,4.52-1.89,2-5.87,1-7.18,3.43a8.59,8.59,0,0,0-.57,2.83,6.4,6.4,0,0,1-5,5.08c-2,.38-4-.24-6-.57a12.13,12.13,0,0,0-1.7-.2,8.83,8.83,0,0,0-3.7.62,30,30,0,0,0-4-.62,8.41,8.41,0,0,0-7,3,6.48,6.48,0,0,0-.39,7.41c2.16,3.11,6.58,3.26,10.22,4.32,7,2.06,15.14,7.94,14.77,19.94-.16,5-2.32,10.24-6.68,12.75a8.65,8.65,0,0,1-1.45.67,9.1,9.1,0,0,1-4.5-3c-1.86-2.49-1.62-6.19-4.85-7.33-2.38-.85-4.87-.73-6.16.91a4.35,4.35,0,0,0-1.51-.91c-3.09-1.1-6.38-.57-7,2.81-.4,2.21,1.83,2.36,3.22,6.07,1.66,4.39-2.32,8.91-6.44,11.14a24.18,24.18,0,0,1-5.84,2.28,11.78,11.78,0,0,1-6.23-3.94c-1.7-2.14-2.52-4.92-4.37-6.93-2.92-3.16-7.69-3.65-11.94-2.59a14.6,14.6,0,0,0-2.07.64,27.22,27.22,0,0,0-3.58,1.69h0c-3.22,1.75-6.23,4-9.49,5.66a33.92,33.92,0,0,1-19.4,3.58,29.83,29.83,0,0,1-10.53-3.26c-9.16-4.89-15.36-15.24-14.53-25.59a30.61,30.61,0,0,1,2.14-9.24c2.78-6.77,8.53-12.57,19.11-15.18a52.42,52.42,0,0,1,6.05-1.16c8.06-1,13,.93,20.7,5.08,11.59,6.25,14.16,15.93,28.82,18.66l.17,0a16.44,16.44,0,0,0,8.1-.13c2.65-.88,5-3.14,5.22-5.92.39-5-5.52-8-7.66-12.55-2.5-5.33,1.21-12.16,6.73-14.2a16,16,0,0,1,3.72-.84,36.64,36.64,0,0,1,5.65-.09c2,.08,3.94.21,5.89.13a28.72,28.72,0,0,0,20.64-10.15q.39-.48.75-1a25.09,25.09,0,0,0,1.57-2.29,28.84,28.84,0,0,0,4.19-16.37,28.93,28.93,0,0,1,2.75,2.61l3.25,5.57c-1.64,1-3.92,1.74-4.84,5.37C514.48,690.59,515.83,693.16,516.52,695.49Z" transform="translate(-163.65 -60.82)"/><path class="cls-21" d="M518.07,689.69a1,1,0,0,1-.64-1.77,3.38,3.38,0,0,0,1.09-2.41c.31-3.31-1.83-8.26-5.45-12.62-.39-.48-.78-.92-1.19-1.35a27.27,27.27,0,0,0-2.66-2.53c-4.09-3.42-8.25-4.74-10.1-3.2-1.16,1-1.43,3-.74,5.71a25.17,25.17,0,0,0,5.09,9.33,1,1,0,0,1-1.54,1.27,27.11,27.11,0,0,1-5.49-10.1c-.9-3.5-.4-6.25,1.4-7.75,2.69-2.23,7.66-1,12.66,3.21a29.69,29.69,0,0,1,2.84,2.69c.44.47.86.94,1.28,1.45,4,4.81,6.25,10.21,5.89,14.07a5.36,5.36,0,0,1-1.8,3.77A1,1,0,0,1,518.07,689.69Z" transform="translate(-163.65 -60.82)"/><path class="cls-30" d="M527.8,715.51c-5.83,0-8.27,5.2-4.63,11.2s7.25,9.21,11.94,6.61S538.2,715.51,527.8,715.51Z" transform="translate(-163.65 -60.82)"/><path class="cls-30" d="M546.57,731.88c-2.4,3.77.5,7.79,4,7s5-5,3.5-7S548.32,729.13,546.57,731.88Z" transform="translate(-163.65 -60.82)"/><path class="cls-30" d="M419.61,687.35c-3.88,6.1.81,12.59,6.47,11.34s8.07-8.1,5.65-11.34S422.44,682.91,419.61,687.35Z" transform="translate(-163.65 -60.82)"/><path class="cls-30" d="M435.92,680.78c-1.33,2.1.28,4.33,2.22,3.9s2.77-2.79,1.94-3.9S436.89,679.26,435.92,680.78Z" transform="translate(-163.65 -60.82)"/><path class="cls-30" d="M424.68,665.08c-1.91,3,.4,6.2,3.19,5.59s4-4,2.78-5.59S426.07,662.89,424.68,665.08Z" transform="translate(-163.65 -60.82)"/><polygon class="cls-31" points="289.33 357.53 320.33 338.3 305.96 331.77 289.33 340.83 289.33 357.53"/><path class="cls-32" d="M455.7,391.54c8.4-7.43,24.84-8.84,29.93-3.29s.15,12.43-9.43,13.78-10.93-.3-15.58,3.29-4.94,11.83-7.64,13S440.29,405.16,455.7,391.54Z" transform="translate(-163.65 -60.82)"/><path class="cls-21" d="M478.3,394.14a3,3,0,1,1,3-3A3,3,0,0,1,478.3,394.14Zm0-4.94a2,2,0,1,0,2,2A2,2,0,0,0,478.3,389.2Z" transform="translate(-163.65 -60.82)"/><path class="cls-33" d="M709.93,772.63l-10.51,17.1s-.89,1.78,0,2.79S727,812.15,727,812.15l35.59,1.9s4.83-.43,2.79-2.94l-51.17-18.84,1.39-19.64Z" transform="translate(-163.65 -60.82)"/><polygon class="cls-34" points="575.11 722.58 573.28 728.18 570.47 736.71 539.57 730.82 544.17 722.62 547.85 716.04 575.11 722.58"/><polygon class="cls-35" points="575.11 722.58 573.28 728.18 544.17 722.62 547.85 716.04 575.11 722.58"/><polygon class="cls-36" points="537.41 612.39 500.18 702.83 613.03 733.1 637.85 667.24 537.41 612.39"/><polygon class="cls-36" points="543.79 611.07 505.53 706.82 618.77 735.45 643.6 669.59 543.79 611.07"/><polygon class="cls-21" points="637.85 671.48 620.34 718.68 617.9 725.24 516.01 697.56 536.26 647.16 547.59 618.98 637.85 671.48"/><polygon class="cls-33" points="537.41 612.39 543.79 611.07 505.53 706.82 500.18 702.83 537.41 612.39"/><circle class="cls-21" cx="564.94" cy="716.04" r="2.68"/><polygon class="cls-36" points="539.57 730.82 565.93 748.21 601.76 750.3 570.47 736.71 539.57 730.82"/><path class="cls-37" d="M784,779.49l-2.43,6.57-101.9-27.68L699.92,708a78.67,78.67,0,0,0,3,16.74c2.11,7.21,5.34,14.26,10.55,19.68s12.66,9,20.16,8.37c9.53-.81,17.77-8.09,27.34-8.13,8.78,0,16.69,6.42,20.31,14.43C784.11,765.41,784.67,772.51,784,779.49Z" transform="translate(-163.65 -60.82)"/><path class="cls-29" d="M436.06,759.53c-3.22,1.75-6.23,4-9.49,5.66a33.92,33.92,0,0,1-19.4,3.58,29.83,29.83,0,0,1-10.53-3.26c-9.16-4.89-15.36-15.24-14.53-25.59a30.61,30.61,0,0,1,2.14-9.24c0,.75,0,1.51,0,2.26a12.29,12.29,0,0,0,1.28,5.44,5.94,5.94,0,0,0,4.39,3.18c2.41.25,4.68-1.39,7.09-1.28,2.93.13,5.16,2.79,6.18,5.54s1.21,5.75,2.23,8.5A15.35,15.35,0,0,0,420.74,764c5.17-.47,9.77-3.58,14.9-4.39Z" transform="translate(-163.65 -60.82)"/><ellipse class="cls-38" cx="400.18" cy="728.02" rx="10.64" ry="8.07" transform="translate(-400.72 134.22) rotate(-21.29)"/><ellipse class="cls-38" cx="469.85" cy="758.26" rx="3.44" ry="4.54" transform="translate(-489.58 1100.5) rotate(-85.08)"/><ellipse class="cls-38" cx="499.27" cy="749.28" rx="5.31" ry="4.03" transform="translate(-530.86 933.26) rotate(-72.1)"/><ellipse class="cls-38" cx="499.27" cy="738.99" rx="2.47" ry="2.52" transform="translate(-521.07 926.12) rotate(-72.1)"/><ellipse class="cls-30" cx="459.56" cy="714.64" rx="2.2" ry="1.67" transform="translate(-548.96 743.88) rotate(-63.34)"/><ellipse class="cls-30" cx="459.99" cy="718.91" rx="0.79" ry="0.8" transform="translate(-396.96 160.34) rotate(-21.71)"/><ellipse class="cls-38" cx="418.19" cy="723.99" rx="4.46" ry="4.25" transform="translate(-398.03 140.48) rotate(-21.29)"/><ellipse class="cls-38" cx="422.69" cy="691.65" rx="2.75" ry="2.62" transform="translate(-385.98 139.91) rotate(-21.29)"/><ellipse class="cls-38" cx="423.74" cy="686.88" rx="1.26" ry="1.2" transform="translate(-384.17 139.97) rotate(-21.29)"/><path class="cls-39" d="M813.79,477.94c-4.28,12.75-17.92,26.54-17.92,26.54l-35.15-11c1-.72,2.07-1.48,3.06-2.26a87.42,87.42,0,0,0,19-21.78l28.92,7.92Z" transform="translate(-163.65 -60.82)"/><path class="cls-40" d="M762.29,513.53s-7.55,14-30.73,10.88L756.47,538s17.22-.65,26.31-16.92Z" transform="translate(-163.65 -60.82)"/><polygon class="cls-41" points="612.25 401.55 611.77 406.78 654.01 417.95 658.45 414.18 612.25 401.55"/><path class="cls-42" d="M811.7,477.38c-3,6.85-8.13,13.68-11.94,18.21-2.77,3.31-4.84,5.39-4.84,5.39l-31.14-9.74a87.42,87.42,0,0,0,19-21.78Z" transform="translate(-163.65 -60.82)"/><path class="cls-43" d="M812.08,472.25c-2.62,7.79-8.73,16-13.09,21.16-2.77,3.31-4.84,5.39-4.84,5.39l-35.14-11c13.5-9.32,22-24,22-24l6.91,1.89Z" transform="translate(-163.65 -60.82)"/><path class="cls-44" d="M812.08,472.25c-2.62,7.79-8.73,16-13.09,21.16l-26.16-8.16c9-6.78,14.47-18.15,15.14-19.59Z" transform="translate(-163.65 -60.82)"/><path class="cls-45" d="M787.63,462.11s-5.26,12.11-14.91,20.61l35.14,11a65.36,65.36,0,0,0,12.49-21.53Z" transform="translate(-163.65 -60.82)"/><path class="cls-20" d="M566,338a1,1,0,0,1-1-1V198.74a1,1,0,0,1,2,0V337A1,1,0,0,1,566,338Z" transform="translate(-163.65 -60.82)"/><circle class="cls-46" cx="402.38" cy="287.35" r="9.17"/><path class="cls-19" d="M562.62,351.56h-.07a.4.4,0,0,1-.32-.46l1.45-7.88a.41.41,0,0,1,.47-.32.4.4,0,0,1,.32.47L563,351.23A.42.42,0,0,1,562.62,351.56Z" transform="translate(-163.65 -60.82)"/><path class="cls-19" d="M569.45,351.56a.4.4,0,0,1-.39-.33l-1.46-7.87a.41.41,0,0,1,.32-.47.4.4,0,0,1,.47.32l1.45,7.88a.4.4,0,0,1-.32.46Z" transform="translate(-163.65 -60.82)"/><path class="cls-19" d="M564.81,351.15a.44.44,0,0,1-.37-.21,2.92,2.92,0,0,1-.38-.64,2.74,2.74,0,0,0-.54.67.35.35,0,0,1-.6-.36,3.69,3.69,0,0,1,.87-1,.49.49,0,0,1,.6-.09.61.61,0,0,1,.23.33c.06.13.12.26.19.38l.53-.83a.34.34,0,0,1,.31-.17.35.35,0,0,1,.29.19c.09.17.18.34.28.49a6.27,6.27,0,0,1,.37-.68.32.32,0,0,1,.29-.17.37.37,0,0,1,.3.16c.11.16.21.34.31.52,0-.12.18-.42.48-.45a.62.62,0,0,1,.51.29l.54.76a.36.36,0,0,1-.08.49.35.35,0,0,1-.49-.09l-.39-.54c-.07.19-.14.38-.2.58a.37.37,0,0,1-.33.24.35.35,0,0,1-.33-.23,6.8,6.8,0,0,0-.3-.67,6.14,6.14,0,0,0-.27.64.33.33,0,0,1-.27.22.32.32,0,0,1-.33-.13,5.19,5.19,0,0,1-.42-.59l-.4.63a.51.51,0,0,1-.39.26Z" transform="translate(-163.65 -60.82)"/><path class="cls-33" d="M594.7,346.08H537.37c0-11.09,7.19-20.61,17.46-24.7A30.26,30.26,0,0,1,566,319.25h0c12.71,0,23.49,7.78,27.21,18.53A24.9,24.9,0,0,1,594.7,346.08Z" transform="translate(-163.65 -60.82)"/><rect class="cls-33" x="398.41" y="255.56" width="7.81" height="3.88" rx="1.87"/><path class="cls-47" d="M594.7,346.08H561.16a23.38,23.38,0,0,1-7.62-17.16,22.49,22.49,0,0,1,1.29-7.54A30.26,30.26,0,0,1,566,319.25h0c12.71,0,23.49,7.78,27.21,18.53A24.9,24.9,0,0,1,594.7,346.08Z" transform="translate(-163.65 -60.82)"/><path class="cls-47" d="M593.29,337.78a17.16,17.16,0,0,1-13.92,6.9c-9.3,0-16.83-7.05-16.83-15.76a15,15,0,0,1,3.54-9.67C578.79,319.27,589.57,327,593.29,337.78Z" transform="translate(-163.65 -60.82)"/><circle class="cls-48" cx="415.06" cy="269.49" r="7.08"/><rect class="cls-49" x="394.56" y="329.48" width="83.16" height="73.33"/><rect class="cls-21" x="388.28" y="324.12" width="83.43" height="28.63"/><rect class="cls-6" x="393.77" y="329.48" width="18.37" height="17.92"/><rect class="cls-50" x="388.28" y="355.72" width="83.43" height="19.06"/><rect class="cls-50" x="388.28" y="377.7" width="83.43" height="19.06"/><rect class="cls-20" x="417.63" y="330" width="47.52" height="2"/><rect class="cls-20" x="417.63" y="334.91" width="47.52" height="2"/><rect class="cls-21" x="417.63" y="360.9" width="47.52" height="2"/><rect class="cls-21" x="417.63" y="365.82" width="33.26" height="2"/><rect class="cls-20" x="417.63" y="339.83" width="47.52" height="2"/><rect class="cls-20" x="417.63" y="344.74" width="47.52" height="2"/><circle class="cls-21" cx="402.03" cy="365.25" r="5.94"/><rect class="cls-21" x="417.63" y="382.88" width="47.52" height="2"/><rect class="cls-21" x="417.63" y="387.8" width="33.26" height="2"/><circle class="cls-21" cx="402.03" cy="387.23" r="5.94"/><path class="cls-14" d="M561.62,514.28a.75.75,0,0,1-.3-1.44s.66-.29,1.76-.87a.75.75,0,1,1,.69,1.33c-1.14.6-1.82.9-1.85.92A.77.77,0,0,1,561.62,514.28Zm6.14-3.42a.77.77,0,0,1-.64-.34.76.76,0,0,1,.23-1c.53-.34,1.09-.7,1.66-1.09a.75.75,0,0,1,1,.2.73.73,0,0,1-.2,1c-.58.4-1.15.77-1.69,1.12A.76.76,0,0,1,567.76,510.86Zm5.71-4.05a.75.75,0,0,1-.46-1.34c.5-.4,1-.82,1.53-1.25a.75.75,0,0,1,1,1.15c-.53.44-1,.87-1.57,1.28A.74.74,0,0,1,573.47,506.81Zm5.26-4.63a.77.77,0,0,1-.53-.22.76.76,0,0,1,0-1.07c.47-.45.93-.92,1.39-1.4a.74.74,0,0,1,1.06,0,.75.75,0,0,1,0,1.06c-.47.49-.95,1-1.42,1.44A.74.74,0,0,1,578.73,502.18Zm4.68-5.21a.76.76,0,0,1-.47-.16.75.75,0,0,1-.12-1.05c.41-.51.8-1,1.19-1.57a.75.75,0,0,1,1.22.88q-.62.82-1.23,1.62A.74.74,0,0,1,583.41,497Zm4-5.77a.75.75,0,0,1-.65-1.13c.33-.56.65-1.13,1-1.72a.75.75,0,0,1,1.33.7c-.32.61-.65,1.2-1,1.78A.75.75,0,0,1,587.36,491.2Zm3-6.29a.86.86,0,0,1-.27-.05.75.75,0,0,1-.43-1c.24-.61.46-1.22.67-1.85a.75.75,0,1,1,1.42.48c-.22.65-.45,1.29-.69,1.91A.75.75,0,0,1,590.41,484.91Zm2-6.69-.16,0a.76.76,0,0,1-.58-.89c.13-.63.25-1.28.36-1.93a.74.74,0,0,1,.86-.62.75.75,0,0,1,.62.86c-.11.68-.23,1.34-.37,2A.76.76,0,0,1,592.41,478.22Zm.86-6.93h0a.75.75,0,0,1-.72-.79c0-.61,0-1.23,0-1.86v-.1a.75.75,0,1,1,1.5,0v.1c0,.65,0,1.29,0,1.93A.76.76,0,0,1,593.27,471.29Z" transform="translate(-163.65 -60.82)"/><path class="cls-51" d="M793.19,406.56s4.5,27.41-17.29,55.8L822.1,475s17.7-25.88,17.8-59.6Z" transform="translate(-163.65 -60.82)"/><polygon class="cls-52" points="629.77 345.74 632.52 352.18 670.29 359.18 676.25 354.58 629.77 345.74"/><path class="cls-52" d="M799.45,469l-.8-.53c14.64-22,16.06-51.33,16.08-51.62l1,0C815.67,417.15,814.23,446.78,799.45,469Z" transform="translate(-163.65 -60.82)"/><path class="cls-40" d="M755.35,603.59s30.83,3.57,41.36-26.9a20.29,20.29,0,0,1-22.63,8.86S772.06,602.34,755.35,603.59Z" transform="translate(-163.65 -60.82)"/><path class="cls-40" d="M822.06,668.44a72.55,72.55,0,0,1-29,1.44H793c-17.75-2.9-27.25-12.17-27.25-12.17A72.06,72.06,0,0,1,754.26,633l0,0a64.38,64.38,0,0,1-2.16-14.08c11.43,33.62,39.28,24.75,39.28,24.75C796.24,664.59,822.06,668.44,822.06,668.44Z" transform="translate(-163.65 -60.82)"/><path class="cls-53" d="M793.07,669.88H793c-17.75-2.9-27.25-12.17-27.25-12.17A72.06,72.06,0,0,1,754.26,633c.4,1,7.06,16.72,20.14,18.66C774.4,651.7,775.78,665.88,793.07,669.88Z" transform="translate(-163.65 -60.82)"/><ellipse class="cls-54" cx="800.28" cy="465.56" rx="3.73" ry="3.1" transform="translate(-253.75 150.91) rotate(-14.28)"/><ellipse class="cls-55" cx="800.28" cy="465.56" rx="2.58" ry="2.14" transform="translate(-253.75 150.91) rotate(-14.28)"/><ellipse class="cls-56" cx="800.28" cy="465.56" rx="1.59" ry="1.32" transform="translate(-253.75 150.91) rotate(-14.28)"/><ellipse class="cls-54" cx="805.43" cy="457.77" rx="2.83" ry="2.35" transform="translate(-251.66 151.94) rotate(-14.28)"/><ellipse class="cls-55" cx="805.43" cy="457.77" rx="1.95" ry="1.62" transform="translate(-251.66 151.94) rotate(-14.28)"/><ellipse class="cls-56" cx="805.43" cy="457.77" rx="1.2" ry="1" transform="translate(-251.66 151.94) rotate(-14.28)"/><path class="cls-5" d="M562.26,557.5A45.2,45.2,0,0,0,552,546c-5.61-4.34-6.52-12.59-4.23-14.59,3.63-3.17,12.83,5.23,12.83,5.23l9.13,13.61Z" transform="translate(-163.65 -60.82)"/><path class="cls-5" d="M554.73,532.4l-8-5.12L538,526.15s-2.48.56,1,2a51.33,51.33,0,0,0,7.08,2l4.34,3.09Z" transform="translate(-163.65 -60.82)"/><path class="cls-5" d="M551.51,533.72l-7.42-3.82-8.75-1.12s-2.47.55,1,2a51.31,51.31,0,0,0,7.09,2l5.25,2.73Z" transform="translate(-163.65 -60.82)"/><path class="cls-5" d="M551.51,537.39l-7.42-3.81-8.75-1.13s-2.47.56,1,2a51.31,51.31,0,0,0,7.09,2l5.25,2.73Z" transform="translate(-163.65 -60.82)"/><path class="cls-5" d="M551.51,541.63l-5.91-3-7-.9s-2,.44.8,1.59a40.57,40.57,0,0,0,5.65,1.63l4.18,2.18Z" transform="translate(-163.65 -60.82)"/><path class="cls-5" d="M549.51,511.49l-6.59-3.32-6.83-.19s-1.87.62.93,1.47a40,40,0,0,0,5.61,1l4.21,2.29Z" transform="translate(-163.65 -60.82)"/><path class="cls-5" d="M546.84,512.76l-6.46-2.53L533,510s-2,.66,1,1.57a42.86,42.86,0,0,0,6,1.1l4.58,1.82Z" transform="translate(-163.65 -60.82)"/><path class="cls-5" d="M547.15,515.8l-6.46-2.53-7.34-.2s-2,.66,1,1.57a42.61,42.61,0,0,0,6,1.1l4.58,1.82Z" transform="translate(-163.65 -60.82)"/><path class="cls-5" d="M547.51,519.32l-5.16-2-5.85-.16s-1.59.53.8,1.25a34.25,34.25,0,0,0,4.81.88l3.65,1.45Z" transform="translate(-163.65 -60.82)"/><path class="cls-16" d="M560.57,536.67a88.84,88.84,0,0,1-5.43-7.33c-1.25-2.19-2.29-4.66-3-3.37s1.9,7.43,3.78,9.3S562.11,538.59,560.57,536.67Z" transform="translate(-163.65 -60.82)"/><path class="cls-5" d="M560,537.13a88.52,88.52,0,0,1-5.28-7.44c-1.2-2.21-2.19-4.71-3-3.44s1.75,7.47,3.58,9.39S561.51,539.09,560,537.13Z" transform="translate(-163.65 -60.82)"/><path class="cls-22" d="M544.25,481.25l-1.06,2.66L519.63,543a.78.78,0,0,1-1.49-.12L500,476.07l19.56-48.58.17-.43a.79.79,0,0,1,1.45,0l23.11,53.62A.78.78,0,0,1,544.25,481.25Z" transform="translate(-163.65 -60.82)"/><line class="cls-57" x1="357.47" y1="366.22" x2="380.59" y2="419.84"/><path class="cls-58" d="M544.25,481.25l-1.06,2.66-23.68-56.42.17-.43a.79.79,0,0,1,1.45,0l23.11,53.62A.78.78,0,0,1,544.25,481.25Z" transform="translate(-163.65 -60.82)"/><path class="cls-59" d="M519.94,484.83h-.16c-2.64-.14-4.54-3.64-4.31-8a10.88,10.88,0,0,1,1.58-5.28,4.12,4.12,0,0,1,3.53-2.19c2.65.14,4.54,3.64,4.31,8h0C524.67,481.6,522.51,484.83,519.94,484.83Zm.49-14.43a3.22,3.22,0,0,0-2.54,1.73,9.73,9.73,0,0,0-1.42,4.79c-.19,3.64,1.35,6.81,3.36,6.91s3.87-2.88,4.06-6.52h0c.19-3.64-1.35-6.8-3.36-6.91Z" transform="translate(-163.65 -60.82)"/><path class="cls-59" d="M519,480a.53.53,0,0,1-.24-.06.5.5,0,0,1-.25-.51l.92-5.92a.51.51,0,0,1,.57-.42.5.5,0,0,1,.41.57l-.7,4.54,1.67-1.49a.5.5,0,0,1,.7,0,.5.5,0,0,1,0,.71l-2.7,2.42A.54.54,0,0,1,519,480Z" transform="translate(-163.65 -60.82)"/><path class="cls-7" d="M684,470.93a26.11,26.11,0,0,0-6.86,2c-2.78,1-6,1.71-8.59.21-2.14-1.25-3.2-3.71-4.37-5.9-1.06-2-2.57-4-4.67-4.57a12.94,12.94,0,0,1,2.62.53c5.69,1.79,6.17,7.16,10.4,7.64C674.8,471.1,679.27,469.93,684,470.93Z" transform="translate(-163.65 -60.82)"/><path class="cls-7" d="M698,487.69a1.8,1.8,0,0,0-.08-.21l.07.13S698,487.66,698,487.69Z" transform="translate(-163.65 -60.82)"/><path class="cls-7" d="M706.85,520.76a17.15,17.15,0,0,1-5.06,8.67c1.26-2.76,2.58-5.53,2.69-8.54.14-3.78-1.72-7.41-4.21-10.25-1.5-1.71-3.24-3.21-4.59-5a8.59,8.59,0,0,1-2-6.34c.36-2.13,1.84-3.87,3-5.68a12.35,12.35,0,0,0,.94-1.76c-1.18,3.95-4.36,5-.25,7.56C702.63,502.63,709.78,509.46,706.85,520.76Z" transform="translate(-163.65 -60.82)"/><path class="cls-7" d="M724.14,564.49c-.18-.53-.39-1-.62-1.55a16.85,16.85,0,0,0-10.26-9c-2.69-.82-5.53-1-8.27-1.57s-5.54-1.84-7.07-4.2a10.31,10.31,0,0,1-1.43-4.93,19.19,19.19,0,0,1,1.33-8.51,9.09,9.09,0,0,0,.42,4.5c2.76,9.27,18.69,2.44,24.87,21.46C723.53,562,723.87,563.24,724.14,564.49Z" transform="translate(-163.65 -60.82)"/><path class="cls-7" d="M724.35,576.58h0c-2.05,10.46-9.86,17.75-17.82,20.89-11.54,4.56-16.75-.89-22.76,5.61s-1.14,26-17.88,27.48-21.95-12.52-31.22-9.11c-.33.13-.66.25-1,.4a30.34,30.34,0,0,1,4.47-2.59c2.94-1.41,6.12-2.57,9.38-2.43,4.4.19,8.3,2.67,12.25,4.62s8.67,3.41,12.65,1.54c3.58-1.68,5.54-5.63,6.38-9.49s.82-7.87,1.81-11.7c2.43-9.42,11.3-16.69,21-17.6,4.21-.39,8.42.3,12.61.79a10.24,10.24,0,0,0,5-.28c3.13-1.27,4.27-5,5-8.32Z" transform="translate(-163.65 -60.82)"/><path class="cls-12" d="M611.43,557.06c0,.3,0,.65-.26.81a.75.75,0,0,1-.44.1,6.75,6.75,0,0,1-4.51-1.89,14.28,14.28,0,0,1-2.9-4.05,32.7,32.7,0,0,1-1.72-3.93l.27-.17a20.94,20.94,0,0,1-.2-2.19l3.73,1.74a12,12,0,0,1,3.78,2.37C611,551.71,611.37,554.48,611.43,557.06Z" transform="translate(-163.65 -60.82)"/><path class="cls-8" d="M670.37,568.54c-10.71,14.85-35.75,36.5-48.25,40.75s-28.75-9.5-43-27.75-17.5-25.25-17.5-25.25l-1.84-2.35c4,2.92,7.24,5.66,9,8.85,7.66,14.26,26,24.07,34.66,31.12s12,27,22.3,5.62,21.87-17.67,36.41-32.64c14.18-14.59,9.81-24.71,9.58-25.21C678.48,544.61,680.48,554.5,670.37,568.54Z" transform="translate(-163.65 -60.82)"/><path class="cls-5" d="M652.4,480.31s-2.2,11.71-6.34,19.51.73,17.07,6.34,19.75,12.43.49,17.55-3.41,5.91-6.82,5.91-6.82,5.5,1.11,7.12-4.47c1.24-4.27-1.92-6.09-6.07-2.19s-2.32,4.7-4.52,3.72,3.42-5.36-.73-11.21S658,490.31,652.4,480.31Z" transform="translate(-163.65 -60.82)"/><path class="cls-21" d="M651,500a2.51,2.51,0,0,1-.76-.12L644.65,498a2.38,2.38,0,0,1-1.41-1.21,2.41,2.41,0,0,1-.15-1.86l2-6.27L655.33,492l-2.05,6.26a2.43,2.43,0,0,1-1.21,1.42A2.5,2.5,0,0,1,651,500Zm-.29-1.54a1,1,0,0,0,.71-.06.93.93,0,0,0,.47-.54l1.58-4.84-7.34-2.4-1.58,4.83a.94.94,0,0,0,.6,1.19Z" transform="translate(-163.65 -60.82)"/><path class="cls-21" d="M665.36,504.74a2.24,2.24,0,0,1-.76-.12l-8.21-2.68a2.44,2.44,0,0,1-1.56-3.08l2-6.26,12.85,4.2-2.05,6.27A2.45,2.45,0,0,1,665.36,504.74Zm-.29-1.54a.94.94,0,0,0,1.18-.6l1.58-4.84-10-3.27-1.59,4.84a.94.94,0,0,0,.6,1.18Z" transform="translate(-163.65 -60.82)"/><path class="cls-21" d="M678.58,502.12a.69.69,0,0,1-.28-.05l-9.81-4.1a.75.75,0,1,1,.58-1.38l9.8,4.09a.75.75,0,0,1-.29,1.44Z" transform="translate(-163.65 -60.82)"/><path class="cls-21" d="M656.86,495.81a.67.67,0,0,1-.24,0l-3-1a.75.75,0,0,1-.47-.95.74.74,0,0,1,1-.47l3,1a.75.75,0,0,1-.24,1.46Z" transform="translate(-163.65 -60.82)"/><path class="cls-16" d="M569.7,550.29,559.42,538l-5.19-4.82-.77-.49-2.94-1.88a12.24,12.24,0,0,1,4.13,1.57l.08,0a37.58,37.58,0,0,1,5.84,4.27Z" transform="translate(-163.65 -60.82)"/><path class="cls-16" d="M554.73,532.4l-1.27.26-2.94-1.88L546.2,528l-8.66-1.73a2.46,2.46,0,0,1,.41-.15l8.75,1.13,7.95,5.07Z" transform="translate(-163.65 -60.82)"/><ellipse class="cls-2" cx="619.5" cy="666.29" rx="64.46" ry="15.74" transform="translate(-237.26 16.13) rotate(-6.71)"/><ellipse class="cls-60" cx="710.29" cy="566.49" rx="10.74" ry="13.11" transform="translate(-256.28 930.82) rotate(-66.47)"/><ellipse class="cls-60" cx="666.43" cy="612.2" rx="8.79" ry="10.74" transform="translate(-312.38 944.37) rotate(-68.31)"/><path class="cls-60" d="M623.41,629.33c-4.7,3.61-10.48,6.7-20.44,5.45a24.53,24.53,0,0,1-5.86-1.44,6.4,6.4,0,0,1-.33-1.05c-1.1-4.91,4-10.23,11.36-11.88s14.24,1,15.34,5.9A6.43,6.43,0,0,1,623.41,629.33Z" transform="translate(-163.65 -60.82)"/><ellipse class="cls-60" cx="696.44" cy="520.76" rx="6.64" ry="8.11" transform="translate(-168.9 -53.73) rotate(-0.58)"/><ellipse class="cls-60" cx="684.02" cy="481.68" rx="8.26" ry="10.09" transform="translate(-236.25 777.85) rotate(-60.41)"/><ellipse class="cls-60" cx="654.9" cy="472.61" rx="6.31" ry="7.7" transform="translate(-298.96 244.96) rotate(-23.89)"/><path class="cls-60" d="M613.19,501.88c-4.75,3.94-10.73,4.57-13.36,1.4-1.59-1.92-1.59-4.79-.28-7.62a30.59,30.59,0,0,1,5.54-3.77,20.85,20.85,0,0,1,12-2.85C619.65,492.22,617.93,498,613.19,501.88Z" transform="translate(-163.65 -60.82)"/><path class="cls-16" d="M627.34,512.8c-7.64,4.34-9.27,8.79-14,12.3-5.92,4.39-25.46,16.21-27.46,16.56s-12-3.35-18.33-9a87.41,87.41,0,0,1-12-13.93,51.21,51.21,0,0,0,11.25,8.68,171.44,171.44,0,0,1,18.54,12.06,1.63,1.63,0,0,0,1.78.13l3.42-1.9a1.57,1.57,0,0,0,.26-.19C609.21,521.77,620.83,514.45,627.34,512.8Z" transform="translate(-163.65 -60.82)"/></g></g></svg>